<?xml version="1.0" encoding="UTF-8" standalone="no"?>
<!DOCTYPE svg PUBLIC "-//W3C//DTD SVG 1.1//EN"
"http://www.w3.org/Graphics/SVG/1.1/DTD/svg11.dtd">


<!-- Page 1 -->
<svg x="0" y="0" width="1286" height="909" viewBox="0 0 1286 909" version="1.1" xmlns="http://www.w3.org/2000/svg" xmlns:xlink="http://www.w3.org/1999/xlink"
style="display: block;margin-left: auto;margin-right: auto;">
<defs>
<clipPath id="c_1"><path d="M0,0H1286V909H0Z"/></clipPath>
<style type="text/css"><![CDATA[

.g0{
fill: #231F20;
}

]]></style>

</defs>
<g clip-path="url(#c_1)">
<path d="M0,0
L0,909
L1286,909
L1286,0 Z " 
fill="#FFFFFF" stroke="none"/>
<path d="M548.2,522.7c-8.9,2.1,-17.8,4.6,-26.5,7.4V494c.8,-.2,1.6,-.3,2.4,-.4C520.4,480,516.7,465.8,513,450.9c4.3,-12.3,8.6,-23.9,12.9,-34.9c-1.4,-.3,-2.8,-.5,-4.1,-.7V379.2c8.3,2.6,16.8,4.9,25.3,6.9v32.8c-1.4,-.2,-2.7,-.3,-4,-.5c-3.6,8.3,-7.1,17,-10.6,26c4.4,16.1,8.8,31.4,13.2,46c.8,-.1,1.7,-.2,2.5,-.3Zm-31.8,9.2c-9.2,3.1,-18.3,6.5,-27.3,10.3V500.4c1.3,-.3,2.6,-.6,3.8,-.9V410c-1.3,-.3,-2.6,-.5,-3.9,-.8V367.3c9,3.7,18.2,7.1,27.4,10.1v37c-1.4,-.2,-2.7,-.5,-4,-.7v81.9c1.3,-.2,2.6,-.5,4,-.7Z" class="g0"/>
<path d="M591.5,515.5c-5.1,.8,-10.1,1.7,-15.2,2.7C571.7,489,567.2,458.7,562.7,427.1c-1.2,0,-2.5,-.1,-3.7,-.1V391.5c8.6,1.3,17.1,2.3,25.7,3.2v33.1c-1.3,0,-2.7,-.1,-4,-.1c2,18.7,4,37.1,6,55.3c2.2,-18.6,4.3,-36.9,6.5,-55c-1.3,0,-2.5,-.1,-3.7,-.1V395.2c6.3,.6,12.7,1,19,1.4v31.7c-1.2,-.1,-2.4,-.1,-3.5,-.1c-4.5,28.4,-9,57.4,-13.5,87.3Z" class="g0"/>
<path d="M624.4,412.6c0,-4,1.2,-7.2,3.6,-9.6c2.4,-2.4,5.3,-3.5,8.8,-3.5c3.7,0,6.6,1.3,8.8,3.8c2.2,2.6,3.3,5.7,3.3,9.4c0,4,-1.2,7.1,-3.4,9.5c-2.4,2.4,-5.3,3.6,-8.7,3.5c-3.6,0,-6.5,-1.1,-8.9,-3.3c-2.4,-2.2,-3.5,-5.4,-3.5,-9.8Z" class="g0"/>
<path d="M723.5,520c-17.2,-3.6,-34.5,-5.9,-51.9,-7.1V486.2c8.7,-21.2,17.3,-42.9,26,-66c-4.4,.3,-8.8,.6,-13.2,.8v14.7c-4,.2,-8.1,.3,-12.1,.4V395.9c17.1,-1.1,34.1,-3.4,51,-6.8v26.5c-9,26.3,-18.1,50.3,-27.1,73.1c5,.3,10.1,.8,15.1,1.3V472.7c4.1,.2,8.1,.5,12.2,.7Z" class="g0"/>
<path d="M762.5,415.5v78.3c.6,.1,1.2,.2,1.9,.3c4.6,.8,7.6,-2.4,9,-9.9c1.3,-7.4,2,-17,2,-28.7c0,-7,-.3,-13.9,-.8,-20.7c-.7,-6.7,-1.7,-11.8,-3.2,-15.3c-1.6,-3.4,-4.3,-4.8,-8.2,-4.1c-.2,0,-.5,.1,-.7,.1m0,114.2C754.6,527.2,746.6,525,738.6,523V490.2c1.4,.2,2.7,.4,4.1,.6V418.4c-1.4,.1,-2.7,.3,-4.1,.5V386.1c8.3,-2,16.5,-4.2,24.6,-6.8c5.6,-1.7,10.1,-2.2,13.6,-1.3c3.5,1,6.7,4.3,9.8,10.4c3.1,6.1,5.5,15.2,7.2,27.3c.9,5.8,1.5,12.1,2,18.9c.4,6.9,.6,14.1,.6,21.6c0,15.2,-.9,29,-2.7,41c-1.8,11.8,-4.1,20.4,-6.9,25.9c-2.8,5.4,-5.8,8.3,-9.1,9c-3.2,.7,-8.3,-.2,-15.2,-2.4Z" class="g0"/>
<path d="M627.4,437.6h19.1v19.8c0,4.5,-.3,8.1,-1.1,10.9c-.7,2.8,-1.8,5.4,-3.3,7.7c-1.4,2.3,-4.7,6.4,-9.8,12.2c-2.7,3,-4.1,5.8,-4.1,8.4c0,2.5,.5,4.5,1.6,5.9c1.1,1.4,2.8,2.1,5,2.1c2.4,0,4.4,-1.1,5.9,-3.2c1.6,-2.2,2.6,-6,3,-11.4l19.5,3.3c-.6,9.9,-3.2,17.9,-7.8,23.9c-4.5,6.1,-11.5,9.1,-20.9,9.1c-7.3,0,-13.2,-2.1,-17.7,-6.3c-6.1,-5.7,-9.2,-13.3,-9.2,-22.8c0,-3.9,.8,-7.7,2.4,-11.4c1.5,-3.6,4.8,-8.1,9.6,-13.4c3.4,-3.7,5.6,-6.6,6.5,-8.9c.9,-2.2,1.3,-22.2,1.3,-25.9Z" class="g0"/>

</g>
</svg>
